<svg width="44" height="42" viewBox="0 0 44 42" fill="none" xmlns="http://www.w3.org/2000/svg">
    <path d="M22.529.793c.518.694 1.583 2.112 1.613 2.127.075.134.15.276.262.388.616 1.268 1.568 2.403 1.988 3.813l.256.799s.067.268.105.582c.232.903.007 1.783-.083 2.671-.3 1.575-1.215 3.03-2.048 4.396-.758 1.037-2.446 3.03-2.446 3.03-.982-1.179-2.055-2.313-3.083-3.44-.585-1.06-1.17-2.112-1.688-3.217-.383-1.261-.705-2.515-.668-3.761-.007-.015.045-.537.068-.761.12-.44.202-.926.442-1.306.068-.202.338-.627.488-.814 0 0 .48-.679.623-.85 1.155-1.448 2.686-2.47 4.028-3.732.068-.052.098.052.143.075zM7.105 8.129c.36.149.742.201 1.11.336 1.013.104 1.996.373 2.963.641.6.202 1.786.806 1.786.806 1.545.844 2.596 2.142 3.676 3.359.923 1.298 1.68 2.709 2.04 4.388.083.492.248 1.03.285 1.53a20.41 20.41 0 0 1-5.033.806c-1.336-.202-2.596-.694-3.849-1.336-1.215-.85-2.153-1.88-2.963-3.008-1.088-1.686-1.65-3.836-1.89-5.895-.038-.284-.068-.538-.068-.538s-.098-.85-.15-1.276c0-.224.022-.336.022-.336s.33.067.585.112c.383.12 1.306.38 1.486.41zM34.854 9.524c.06.007 1.718.269 2.678.552.165.03.255.082.405.105.848.283 1.703.567 2.55.88-.142 1.142-.344 2.277-1.05 3.27-.022.037-.052.074-.09.126-.592.955-1.5 1.791-2.423 2.418-.877.567-1.74 1.172-2.73 1.575-2.026.962-4.427 1.686-6.707 1.32-.855-.149-1.756-.178-2.611-.365 0 0 .39-1.523.555-2.284.113-.485.518-1.395.518-1.395.645-1 .855-2.142 1.703-3.083 1.162-1.186 2.34-2.32 3.886-2.91 1.073-.358 2.258-.396 3.316-.209zM12.07 28.607c1.059-.388 1.794-1.246 2.559-2.007.773-.791 1.44-1.68 2.086-2.59.015-.037.6-.933.87-1.291.022-.03.045-.045.067-.082-1.455-.59-2.858-1.21-4.32-1.582-1.239-.314-2.447-.717-3.722-.739-1.08-.037-2.13-.246-3.256.06-2.49.612-4.478 1.947-6.354 3.38l.015.082c.683 1.023 1.403 2.045 2.213 2.97 0 .008.315.404.503.56l.915.911c.36.186 1.14.53 1.14.53.923.515 1.943.671 2.949.761 1.147-.104 3.12-.35 4.336-.963zM33.602 20.293c.585-.022.983.06 1.478.09 1.41.164 2.76.627 4.08 1.209.21.12.428.246.631.388 0 0 .435.373.69.56.39.365.72.746 1.035 1.127.09.194.368.619.39.664.533.992 1.02 2.03 1.434 3.09.037.06.052.126.082.193-.24.112-.51.157-.758.24-.052.022-.81.23-1.11.372-.833.194-1.703.359-2.543.508-.06.015-1.223.179-1.763.216-.03.008-1.005.09-1.185.06-.27.052-.526.015-.796.03a21.022 21.022 0 0 1-1.808-.097 6.856 6.856 0 0 1-1.47-.321c-.083-.023-1.328-.523-1.373-.537-.233-.105-.75-.433-.75-.433-.33-.142-.623-.403-.908-.59a8.321 8.321 0 0 1-1.29-1.276c-.585-.769-1.478-2.493-1.493-2.508 1.133-.985 2.513-1.634 3.908-2.209.548-.23 1.11-.432 1.68-.627.608-.067 1.254-.208 1.839-.149zM31.275 30.353c.983 1.283 2.056 2.448 2.334 4.224.09.56.202 1.15.232 1.701.075.605.158 1.27.158 1.866.015.963-.068 1.926-.068 2.896-.472-.142-.938-.343-1.395-.515-.038.022-3.241-1.127-3.241-1.127a20.92 20.92 0 0 1-3.414-1.933s-1.508-1.105-1.98-1.799c-.323-.432-.615-.903-.923-1.365-.037-.053-.3-.568-.315-.799-.172-.694-.308-1.41-.255-2.097a6.098 6.098 0 0 1 .03-.97c.15-1.433.51-2.836.96-4.224l.083-.373c2.7.94 5.851 2.298 7.794 4.515zM20.06 25.883c-1.935.716-3.78 1.59-5.648 2.44-.308.187-.638.426-.96.605-.548.597-1.786 1.709-1.786 1.709-.743.724-1.47 1.798-1.47 2.895-.075 1.083.037 2.157.195 3.247.21 1.134.585 2.268.953 3.41.075.388.202.74.277 1.12.113-.023.27-.082.405-.097 0 0 3.024-1 4.351-1.754 1.08-.62 2.146-1.306 2.896-2.291a5.4 5.4 0 0 0 .398-.47c1.02-1.396 1.628-3.142 1.62-4.784 0 0-.007-.523.015-.769-.052-.612-.21-1.239-.27-1.843-.12-.366-.172-.724-.285-1.09-.173-.768-.48-1.552-.69-2.328z" fill="#DA2128"/>
</svg>
