<svg width="60" height="60" viewBox="0 0 60 60" fill="none" xmlns="http://www.w3.org/2000/svg">
    <path d="m51.305 47.176 6.745-.017V10.755h-1.458M3.484 10.755H1.95v36.354l25.273.099a3.141 3.141 0 0 0 2.733 1.346h.216a3.14 3.14 0 0 0 2.733-1.346h6.14" stroke="#797979" stroke-width="2" stroke-linecap="round" stroke-linejoin="round"/>
    <path d="M42 43.125v7.125l2.934-.875L48 50.25v-7.125" stroke="#DA2128" stroke-width="2" stroke-linecap="round" stroke-linejoin="round"/>
    <path d="M53.254 9.45H32.24c-1.302.448-2.029 1.278-2.136 2.082-.108-.804-1.015-1.71-2.316-2.083H7.025v33.567l8.25.045h12.513c1.176.337 2.127 1.104 2.275 1.84h.077c.12-.722.929-1.445 2.1-1.84l21.014.068V9.449zM35.232 17.87h13.15M35.232 23.506h13.15M35.232 29.143h13.15M35.232 34.78h13.15M12.344 29.143h13.15M12.344 34.78h13.15M30.104 11.531v33.37" stroke="#797979" stroke-width="2" stroke-linecap="round" stroke-linejoin="round"/>
    <path d="M12.94 19.655a5.794 5.794 0 1 1 11.588 0 5.794 5.794 0 0 1-11.588 0z" fill="#D3EEFE" stroke="#797979" stroke-width="2" stroke-linecap="round" stroke-linejoin="round"/>
    <path d="M18.734 14.152V25.45M19.027 19.848l3.609-4.098" stroke="#797979" stroke-width="2" stroke-linecap="round" stroke-linejoin="round"/>
</svg>
