<svg width="60" height="60" viewBox="0 0 60 60" fill="none" xmlns="http://www.w3.org/2000/svg">
    <path d="M57.5 57V13.883a1 1 0 0 0-1.56-.829L39 24.5v-9.7a1 1 0 0 0-1.528-.85L20.5 24.5v-9.7a1 1 0 0 0-1.528-.85L2 24.5V57h55.5z" stroke="#787878" stroke-width="2"/>
    <path d="M15 6H6L4.321 23l11.65-7.167L15.001 6z" stroke="#787878" stroke-width="2"/>
    <path d="M30.464 40h1.4v-2.97c0-.85-.11-1.78-.18-2.58h.05l.75 1.59 2.14 3.96h1.5v-7.4h-1.4v2.95c0 .84.11 1.82.19 2.59h-.05l-.74-1.6-2.15-3.94h-1.51V40zm7.49 0h4.65v-1.24h-3.17v-1.98h2.6v-1.24h-2.6v-1.71h3.06V32.6h-4.54V40zm7.622 0h1.48v-6.17h2.1V32.6h-5.66v1.23h2.08V40zM26.532 51h5.3v-1.24h-3.48l3.44-5.28v-.88h-4.93v1.23h3.12l-3.45 5.28V51zm6.612 0h4.65v-1.24h-3.17v-1.98h2.6v-1.24h-2.6v-1.71h3.06V43.6h-4.54V51zm7.633-6.23h.96c.95 0 1.47.27 1.47 1.07 0 .79-.52 1.19-1.47 1.19h-.96v-2.26zm4.2 6.23-1.73-3.03c.85-.33 1.41-1.02 1.41-2.13 0-1.7-1.23-2.24-2.78-2.24h-2.58V51h1.48v-2.8h1.03l1.52 2.8h1.65zm4.076.14c1.96 0 3.31-1.47 3.31-3.87 0-2.4-1.35-3.81-3.31-3.81s-3.31 1.4-3.31 3.81c0 2.4 1.35 3.87 3.31 3.87zm0-1.28c-1.1 0-1.8-1.01-1.8-2.59 0-1.59.7-2.54 1.8-2.54s1.8.95 1.8 2.54c0 1.58-.7 2.59-1.8 2.59z" fill="#787878"/>
    <path stroke="#787878" stroke-width="2" d="M5 3h11v3H5z"/>
    <path d="M19.976 35.962C22.749 40.764 19.212 48 19.212 48s-8.03-.558-10.803-5.362c-2.773-4.803.762-12.03.762-12.03s8.031.549 10.805 5.352z" fill="#E4FFAA" stroke="#787878" stroke-width="2" stroke-linejoin="round"/>
    <path d="m9.17 30.61 12 20.784M7.428 36.741l6.14 1.64M15.316 41.256l2.107-7.862M9.497 44.08l7.962 1.04" stroke="#787878" stroke-width="2" stroke-linejoin="round"/>
</svg>
