<svg width="60" height="60" viewBox="0 0 60 60" fill="none" xmlns="http://www.w3.org/2000/svg">
    <g clip-path="url(#a)">
        <path d="M44.664 60V42.12a17.985 17.985 0 0 0 5.836-8.71 17.759 17.759 0 0 0-.047-10.437H15.698a18.121 18.121 0 0 0-.932 5.714v.372L8.977 39.365a1.643 1.643 0 0 0 .024 1.65c.15.25.362.456.617.599.255.143.544.218.837.218h4.311v8.196a4.1 4.1 0 0 0 1.23 2.915 4.218 4.218 0 0 0 2.958 1.206h4.926v5.882" fill="#fff"/>
        <path d="M44.664 60V42.12a17.985 17.985 0 0 0 5.836-8.71 17.759 17.759 0 0 0-.047-10.437H15.698a18.121 18.121 0 0 0-.932 5.714v.372L8.977 39.365a1.643 1.643 0 0 0 .024 1.65c.15.25.362.456.617.599.255.143.544.218.837.218h4.311v8.196a4.1 4.1 0 0 0 1.23 2.915 4.218 4.218 0 0 0 2.958 1.206h4.926v5.882" stroke="#787878" stroke-width="2" stroke-linejoin="round"/>
        <path d="M25.189 34.045v-3.46a7.785 7.785 0 0 0-2.31-5.39 12.78 12.78 0 0 1-3.357-6.404 12.671 12.671 0 0 1 .672-7.18 12.868 12.868 0 0 1 4.49-5.69 13.143 13.143 0 0 1 6.894-2.407h.716c2.557-.001 5.057.74 7.19 2.13a12.886 12.886 0 0 1 4.802 5.69c1 2.32 1.284 4.878.82 7.357a12.778 12.778 0 0 1-3.436 6.58 7.642 7.642 0 0 0-2.256 5.313v3.46H25.19z" fill="#fff"/>
        <path d="M42.262 16.317a9.703 9.703 0 0 0-1.157-4.602 9.863 9.863 0 0 0-3.211-3.529 10.084 10.084 0 0 0-9.279-.989 9.95 9.95 0 0 0-3.902 2.771 9.758 9.758 0 0 0-2.129 4.251 9.68 9.68 0 0 0 .142 4.74 9.78 9.78 0 0 0 2.378 4.12c1.991 2 3.124 4.68 3.164 7.483v.425h8.083v-.425a10.617 10.617 0 0 1 3.125-7.438 9.71 9.71 0 0 0 2.786-6.807z" fill="#FFF0BC" stroke="#DA2128" stroke-width="2" stroke-linejoin="round"/>
        <path d="M36.258 31.01h-7.89c-1.012 0-1.832.807-1.832 1.802 0 .996.82 1.803 1.832 1.803h7.89c1.012 0 1.832-.807 1.832-1.803 0-.995-.82-1.802-1.832-1.802z" fill="#fff" stroke="#DA2128" stroke-width="2" stroke-linejoin="round"/>
        <path d="M36.258 34.614h-7.89c-1.012 0-1.832.807-1.832 1.803 0 .995.82 1.802 1.832 1.802h7.89c1.012 0 1.832-.807 1.832-1.802 0-.996-.82-1.803-1.832-1.803z" fill="#fff" stroke="#DA2128" stroke-width="2" stroke-linejoin="round"/>
        <path d="M32.31 3.491V0M41.477 7.24l2.51-2.474M45.28 16.278h3.54M19.346 16.278h-3.54M23.141 7.24 20.64 4.766M20.232 28.855v2.603" stroke="#DA2128" stroke-width="2" stroke-linejoin="round"/>
    </g>
    <defs>
        <clipPath id="a">
            <path fill="#fff" d="M0 0h60v60H0z"/>
        </clipPath>
    </defs>
</svg>
