<svg width="60" height="60" viewBox="0 0 60 60" fill="none" xmlns="http://www.w3.org/2000/svg">
    <path fill="#fff" d="M-158-3416h375v4732h-375z"/>
    <g filter="url(#b2tpps2g6a)">
        <rect x="-134" y="-31" width="327" height="294" rx="8" fill="#fff"/>
        <rect x="-133.5" y="-30.5" width="326" height="293" rx="7.5" stroke="#C7730E"/>
    </g>
    <path d="M32.793 49.273h2.305v-6.148c0-.688.129-1.39.41-2.07a5.484 5.484 0 0 1 1.17-1.753l7.964-7.964.054-.05c-2.608-5.692-8.35-9.652-15.02-9.652-6.672 0-12.418 3.96-15.022 9.652.017.017.038.033.054.05l7.965 7.964c.489.49.89 1.078 1.169 1.754.282.676.41 1.376.41 2.069v6.148h2.301v5.104a16.465 16.465 0 0 0 6.236 0v-5.104h.004z" fill="#FFF0BC"/>
    <path d="M46.296 50.228H34.148V43.13a6.332 6.332 0 0 1 1.858-4.49l7.964-7.964a3.642 3.642 0 0 1 2.583-1.07c.974 0 1.895.382 2.583 1.07a3.635 3.635 0 0 1 1.07 2.583c0 .974-.382 1.89-1.07 2.583l-5.879 5.879a3.635 3.635 0 0 1-2.583 1.07v-1.904c.469 0 .908-.182 1.236-.514l5.879-5.879a1.752 1.752 0 0 0-1.24-2.985c-.464 0-.908.183-1.24.514l-7.964 7.965a4.448 4.448 0 0 0-1.306 3.147v5.198h8.396a8.986 8.986 0 0 1 .638-2.516 8.987 8.987 0 0 1 1.961-2.936l5.887-5.887a1.743 1.743 0 0 0 .514-1.236V20.403c0-.468-.182-.908-.514-1.235a1.748 1.748 0 0 0-2.985 1.236v7.706h-1.903v-7.707c0-.974.382-1.89 1.07-2.583a3.643 3.643 0 0 1 2.583-1.07c.974 0 1.89.382 2.583 1.07a3.635 3.635 0 0 1 1.07 2.583V35.76a3.65 3.65 0 0 1-1.07 2.583l-5.883 5.883a7.087 7.087 0 0 0-1.551 2.322 7.112 7.112 0 0 0-.543 2.736v.95l.004-.005z" fill="#787878"/>
    <path d="M47.648 49.273H32.793v5.402h14.855v-5.402z" fill="#FFCFD1"/>
    <path d="M48.597 54.676H46.7v-4.449H33.743v4.449h-1.9v-6.352h16.754v6.352z" fill="#DA2128"/>
    <path d="M25.202 50.23H13.05v-.95c0-.944-.182-1.865-.543-2.736a7.13 7.13 0 0 0-1.55-2.321L5.07 38.335A3.65 3.65 0 0 1 4 35.752V20.396c0-.974.377-1.89 1.07-2.583a3.635 3.635 0 0 1 2.582-1.07c.975 0 1.895.382 2.583 1.07a3.642 3.642 0 0 1 1.07 2.583v7.707H9.402v-7.707a1.744 1.744 0 0 0-2.985-1.236 1.738 1.738 0 0 0-.514 1.236v15.356a1.744 1.744 0 0 0 .51 1.236l5.887 5.887a8.985 8.985 0 0 1 1.961 2.936c.336.808.548 1.65.639 2.512h8.395v-5.199a4.45 4.45 0 0 0-1.306-3.147l-7.964-7.968a1.727 1.727 0 0 0-1.236-.51 1.744 1.744 0 0 0-1.75 1.75c0 .468.183.907.515 1.235l5.879 5.879c.332.331.771.514 1.235.514v1.903c-.974 0-1.89-.382-2.583-1.07l-5.879-5.879a3.635 3.635 0 0 1-1.07-2.583c0-.974.382-1.89 1.07-2.583a3.635 3.635 0 0 1 2.583-1.07c.975 0 1.89.378 2.583 1.07l7.965 7.969a6.352 6.352 0 0 1 1.861 4.494v7.098l.004.004z" fill="#787878"/>
    <path d="M26.558 49.276H11.703v5.402h14.855v-5.402z" fill="#FFCFD1"/>
    <path d="M27.508 54.678h-1.903V50.23H12.653v4.449H10.75v-6.352h16.758v6.352z" fill="#DA2128"/>
    <path d="M26.74 17.223a5.838 5.838 0 0 0 0-8.25c-.949-.95-2.147-1.456-3.366-1.659L15.518 6l1.314 7.857c.203 1.223.713 2.42 1.658 3.37a5.838 5.838 0 0 0 8.25 0v-.004zM32.608 17.223a5.838 5.838 0 0 1 0-8.25c.949-.95 2.147-1.456 3.37-1.659L43.835 6l-1.315 7.857c-.203 1.223-.713 2.42-1.662 3.37-2.272 2.276-5.97 2.276-8.25 0v-.004z" fill="#D3EEFE"/>
    <path d="M30.626 20.16h-1.903v17.997h1.903V20.159z" fill="#787878"/>
    <path d="m29.675 21.502-7.732-7.732 1.344-1.343 6.389 6.389 6.384-6.39 1.348 1.344-7.733 7.732z" fill="#787878"/>
    <defs>
        <filter id="b2tpps2g6a" x="-144" y="-41" width="357" height="324" filterUnits="userSpaceOnUse" color-interpolation-filters="sRGB">
            <feFlood flood-opacity="0" result="BackgroundImageFix"/>
            <feColorMatrix in="SourceAlpha" values="0 0 0 0 0 0 0 0 0 0 0 0 0 0 0 0 0 0 127 0" result="hardAlpha"/>
            <feOffset dx="5" dy="5"/>
            <feGaussianBlur stdDeviation="7.5"/>
            <feComposite in2="hardAlpha" operator="out"/>
            <feColorMatrix values="0 0 0 0 0 0 0 0 0 0 0 0 0 0 0 0 0 0 0.04 0"/>
            <feBlend in2="BackgroundImageFix" result="effect1_dropShadow_338_2558"/>
            <feBlend in="SourceGraphic" in2="effect1_dropShadow_338_2558" result="shape"/>
        </filter>
    </defs>
</svg>
