<svg width="61" height="60" viewBox="0 0 61 60" fill="none" xmlns="http://www.w3.org/2000/svg">
    <path d="M45.52 29.763h-8.243a8.31 8.31 0 0 0-7.563 4.852 8.31 8.31 0 0 0-7.562-4.852h-8.498l2.38-8.566 2.047-7.358h22.943l2.048 7.359 2.447 8.565z" fill="#fff" stroke="#787878" stroke-width="2" stroke-linecap="round" stroke-linejoin="round"/>
    <path d="m56.131 13.838-26.511 8.49-26.52-8.49L29.62 5.35l26.511 8.488z" fill="#D3EEFE" stroke="#787878" stroke-width="2" stroke-linecap="round" stroke-linejoin="round"/>
    <path d="M29.62 15.478c1.755 0 3.177-.734 3.177-1.64 0-.905-1.422-1.64-3.178-1.64-1.755 0-3.178.734-3.178 1.64 0 .906 1.423 1.64 3.178 1.64z" fill="#fff" stroke="#787878" stroke-width="2" stroke-linecap="round" stroke-linejoin="round"/>
    <path d="M32.799 13.839h23.333v9.287" stroke="#787878" stroke-width="2" stroke-linecap="round" stroke-linejoin="round"/>
    <path d="M56.132 26.058a2.269 2.269 0 1 0 0-4.537 2.269 2.269 0 0 0 0 4.537z" fill="#fff" stroke="#787878" stroke-width="2" stroke-linecap="round" stroke-linejoin="round"/>
    <path d="M56.132 26.049a2.278 2.278 0 0 0-2.269 2.269v7.92h4.538v-7.92a2.278 2.278 0 0 0-2.269-2.27v0z" fill="#fff" stroke="#787878" stroke-width="2" stroke-linecap="round" stroke-linejoin="round"/>
    <path d="m9.957 38.14 19.654 1.692v7.35l-19.654 1.69V38.142zM49.274 38.14l-19.663 1.692v7.35l19.663 1.69V38.142z" fill="#FFF0BC" stroke="#787878" stroke-width="2" stroke-linecap="round" stroke-linejoin="round"/>
    <path d="M32.058 38.898h-4.886v9.22h4.886v-9.22z" fill="#fff" stroke="#DA2128" stroke-width="2" stroke-linecap="round" stroke-linejoin="round"/>
    <path d="m31.54 54.788-1.92-1.555-1.92 1.555v-6.67h3.84v6.67z" fill="#fff" stroke="#DA2128" stroke-width="2" stroke-linecap="round" stroke-linejoin="round"/>
</svg>
