<svg width="60" height="60" viewBox="0 0 60 60" fill="none" xmlns="http://www.w3.org/2000/svg">
    <g clip-path="url(#a)">
        <path d="M37.776 38.623C48.95 27.494 53.903 14.387 48.843 9.346c-5.06-5.04-18.22-.106-29.392 11.023C8.28 31.497 3.325 44.605 8.385 49.645c5.06 5.041 18.22.106 29.391-11.022z" stroke="#787878" stroke-width="2" stroke-linejoin="round"/>
        <path d="M56.244 36.873c1.852-6.886-9.018-15.77-24.28-19.843C16.705 12.957 2.83 15.237.979 22.122c-1.852 6.886 9.018 15.77 24.279 19.843s29.135 1.794 30.987-5.092z" stroke="#787878" stroke-width="2" stroke-linejoin="round"/>
        <path d="M36.015 57.021c6.913-1.845 9.202-15.664 5.112-30.866C37.038 10.954 28.12.125 21.207 1.971c-6.913 1.845-9.202 15.664-5.113 30.866 4.09 15.201 13.008 26.03 19.921 24.184z" stroke="#787878" stroke-width="2" stroke-linejoin="round"/>
        <path d="M28.615 37.602c4.49 0 8.13-3.626 8.13-8.098 0-4.472-3.64-8.098-8.13-8.098s-8.13 3.626-8.13 8.098c0 4.472 3.64 8.098 8.13 8.098z" fill="#D3EEFE" stroke="#787878" stroke-width="2" stroke-linejoin="round"/>
        <path d="M55.218 35.919c2.637 0 4.774-2.13 4.774-4.756 0-2.627-2.137-4.756-4.774-4.756s-4.774 2.13-4.774 4.756c0 2.626 2.137 4.756 4.774 4.756z" fill="#fff"/>
        <path d="M55.218 33.392a2.233 2.233 0 0 0 2.237-2.228 2.233 2.233 0 0 0-2.237-2.229 2.232 2.232 0 0 0-2.237 2.229 2.232 2.232 0 0 0 2.237 2.228z" stroke="#DA2128" stroke-width="2" stroke-linejoin="round"/>
        <path d="M23.34 53.851c2.637 0 4.774-2.129 4.774-4.755 0-2.627-2.137-4.756-4.774-4.756s-4.775 2.13-4.775 4.756c0 2.626 2.138 4.755 4.775 4.755z" fill="#fff"/>
        <path d="M23.34 51.323a2.232 2.232 0 0 0 2.237-2.228 2.232 2.232 0 0 0-2.237-2.228 2.232 2.232 0 0 0-2.237 2.228 2.232 2.232 0 0 0 2.237 2.228z" stroke="#DA2128" stroke-width="2" stroke-linejoin="round"/>
        <path d="M24.867 20.338c2.637 0 4.774-2.13 4.774-4.756 0-2.627-2.137-4.756-4.774-4.756s-4.774 2.13-4.774 4.756c0 2.627 2.137 4.756 4.774 4.756z" fill="#fff"/>
        <path d="M24.867 17.81a2.232 2.232 0 0 0 2.237-2.227 2.232 2.232 0 0 0-2.237-2.229 2.232 2.232 0 0 0-2.237 2.229 2.232 2.232 0 0 0 2.237 2.228z" stroke="#DA2128" stroke-width="2" stroke-linejoin="round"/>
    </g>
    <defs>
        <clipPath id="a">
            <path fill="#fff" transform="translate(0 1)" d="M0 0h60v57H0z"/>
        </clipPath>
    </defs>
</svg>
