<svg width="60" height="60" viewBox="0 0 60 60" fill="none" xmlns="http://www.w3.org/2000/svg">
    <g clip-path="url(#a)" stroke-width="2" stroke-linejoin="round">
        <path d="M56.239 33.547v-6.664l-6.9-1.48a20.034 20.034 0 0 0-2.221-5.457l3.798-5.923-4.739-4.738-5.841 3.768a19.805 19.805 0 0 0-5.538-2.325l-1.481-6.76h-6.663l-1.481 6.76a19.892 19.892 0 0 0-5.553 2.318l-5.812-3.747-4.731 4.731 3.783 5.879a19.627 19.627 0 0 0-2.22 5.479l-6.871 1.48v6.664l6.96 1.48a19.922 19.922 0 0 0 2.22 5.302L9.062 46.34l4.739 4.731 6.086-3.916a19.7 19.7 0 0 0 5.22 2.132l1.54 7.093h6.663l1.532-7.108a19.673 19.673 0 0 0 5.183-2.14l6.093 3.925 4.731-4.739-3.82-5.975a19.726 19.726 0 0 0 2.22-5.279l6.99-1.517z" fill="#fff" stroke="#787878"/>
        <path d="M30 42.505c6.792 0 12.298-5.505 12.298-12.297 0-6.792-5.506-12.298-12.298-12.298s-12.298 5.506-12.298 12.298S23.208 42.505 30 42.505z" fill="#fff" stroke="#DA2128"/>
        <path d="M37.7 23.47c0 6.397-7.7 11.587-7.7 11.587s-7.707-5.183-7.707-11.587S30 11.89 30 11.89s7.7 5.183 7.7 11.58z" fill="#E4FFAA" stroke="#787878"/>
        <path d="M30 11.89v30.615M24.729 17.007l5.182 5.182M30 26.061l6.641-6.633M22.56 25.535l7.351 5.627" stroke="#787878"/>
        <path d="M26.239.74h7.078M6.649 11.972 11.66 6.96M.74 33.769v-7.085M11.972 53.352l-5.013-5.005M33.769 59.26h-7.086M53.351 48.028l-5.005 5.013M59.26 26.24v7.077M48.028 6.648l5.012 5.013" stroke="#DA2128"/>
    </g>
    <defs>
        <clipPath id="a">
            <path fill="#fff" d="M0 0h60v60H0z"/>
        </clipPath>
    </defs>
</svg>
