<svg width="60" height="60" viewBox="0 0 60 60" fill="none" xmlns="http://www.w3.org/2000/svg">
    <g clip-path="url(#a)" stroke-width="2" stroke-linecap="round" stroke-linejoin="round">
        <path d="M46.252 4.835H13.918a3.992 3.992 0 0 0-3.992 3.992v46.255a3.992 3.992 0 0 0 3.992 3.992h32.334a3.992 3.992 0 0 0 3.992-3.992V8.827a3.992 3.992 0 0 0-3.992-3.992z" fill="#fff" stroke="#787878"/>
        <path d="M45.613 54.443V9.466H14.557v44.977h31.056z" fill="#fff" stroke="#787878"/>
        <path d="M38.12 4.474c0-1.936-3.537-3.502-7.9-3.502-4.362 0-7.91 1.566-7.91 3.502h-3.019v6.983H41.15V4.474h-3.03z" fill="#FFF0BC" stroke="#787878"/>
        <path d="M32.433 21.22a2.214 2.214 0 0 0-4.427 0v1.435a2.214 2.214 0 1 0 4.427 0V21.22zM26.718 27.564h6.993a3.214 3.214 0 0 1 3.214 3.214v2.686H23.504v-2.686a3.214 3.214 0 0 1 3.214-3.214z" fill="#FFF0BC" stroke="#DA2128"/>
        <path d="M19.92 40.068h20.33M19.92 43.8h20.33M19.92 47.533h20.33" stroke="#787878"/>
    </g>
    <defs>
        <clipPath id="a">
            <path fill="#fff" d="M0 0h60v60H0z"/>
        </clipPath>
    </defs>
</svg>
