<svg width="60" height="60" viewBox="0 0 60 60" fill="none" xmlns="http://www.w3.org/2000/svg">
    <path d="M47.394 39C53.252 39 58 34.178 58 28.23c0-5.085-3.472-9.347-8.14-10.476C48.93 12.77 44.62 9 39.44 9c-2.509 0-4.814.884-6.63 2.362A10.462 10.462 0 0 0 26.183 9c-5.216 0-9.552 3.822-10.44 8.859C11.276 19.127 8 23.29 8 28.23 8 34.178 12.748 39 18.606 39h28.788z" fill="#D3EEFE" stroke="#787878" stroke-width="2"/>
    <path d="M27.933 30.196c1.344 0 2.45-.532 3.304-1.526l-1.092-1.288c-.56.602-1.26 1.022-2.142 1.022-1.638 0-2.702-1.358-2.702-3.612 0-2.226 1.176-3.57 2.744-3.57.784 0 1.386.364 1.904.868l1.092-1.316c-.672-.7-1.722-1.33-3.038-1.33-2.618 0-4.816 2.002-4.816 5.418 0 3.458 2.128 5.334 4.746 5.334zm8.542 0c2.744 0 4.634-2.058 4.634-5.418 0-3.36-1.89-5.334-4.634-5.334-2.744 0-4.634 1.96-4.634 5.334 0 3.36 1.89 5.418 4.634 5.418zm0-1.792c-1.54 0-2.52-1.414-2.52-3.626 0-2.226.98-3.556 2.52-3.556s2.52 1.33 2.52 3.556c0 2.212-.98 3.626-2.52 3.626zM42.202 30h3.968v-.992h-1.288c-.272 0-.664.032-.96.064 1.08-1.056 1.968-2.208 1.968-3.28 0-1.104-.744-1.824-1.864-1.824-.808 0-1.336.32-1.88.896l.64.64c.296-.328.656-.608 1.088-.608.56 0 .888.36.888.96 0 .912-.952 2.024-2.56 3.464V30z" fill="#787878"/>
    <path d="M14.249 50.997c6.764 0 12.248-5.484 12.248-12.248 0-6.765-5.484-12.249-12.248-12.249C7.484 26.5 2 31.984 2 38.749c0 6.764 5.484 12.248 12.249 12.248z" fill="#fff" stroke="#787878" stroke-width="2" stroke-linejoin="round"/>
    <path d="M6.168 41.205a7.92 7.92 0 0 1 7.92-7.92" fill="#fff"/>
    <path d="M6.168 41.205a7.92 7.92 0 0 1 7.92-7.92" stroke="#DA2128" stroke-width="2" stroke-linejoin="round"/>
    <path d="m14.088 36.14 2.855-2.855-2.855-2.847" fill="#fff"/>
    <path d="m14.088 36.14 2.855-2.855-2.855-2.847" stroke="#DA2128" stroke-width="2" stroke-linejoin="round"/>
    <path d="M22.33 36.277a7.918 7.918 0 0 1-7.92 7.928" fill="#fff"/>
    <path d="M22.33 36.277a7.918 7.918 0 0 1-7.92 7.928" stroke="#DA2128" stroke-width="2" stroke-linejoin="round"/>
    <path d="m14.402 41.358-2.847 2.848 2.847 2.855" fill="#fff"/>
    <path d="m14.402 41.358-2.847 2.848 2.847 2.855" stroke="#DA2128" stroke-width="2" stroke-linejoin="round"/>
</svg>
