<svg width="60" height="60" viewBox="0 0 60 60" fill="none" xmlns="http://www.w3.org/2000/svg">
    <path fill="#fff" d="M-930-2143H990V658H-930z"/>
    <path fill="#F8F8F8" d="M-930-502H990v700H-930z"/>
    <g filter="url(#iazylrm8ja)">
        <rect x="-160" y="-54" width="380" height="429" rx="8" fill="#fff"/>
        <rect x="-159.5" y="-53.5" width="379" height="428" rx="7.5" stroke="#D5964A"/>
    </g>
    <path fill="#fff" d="M0 0h60v60H0z"/>
    <path d="M18.209 4.322v16.163c0 3.009 1.146 6.017 3.443 8.31 1.58 1.58 3.499 2.617 5.522 3.108v6.994h5.583v-6.994a11.691 11.691 0 0 0 5.518-3.109 11.708 11.708 0 0 0 3.442-8.309V4.322H18.21zM37.72 43.606H22.207V42.33c0-.877.334-1.754 1.003-2.422a3.416 3.416 0 0 1 2.422-1.003h8.652c.878 0 1.754.334 2.423 1.002a3.415 3.415 0 0 1 1.003 2.423v1.276h.008z" fill="#FFCFD1"/>
    <path d="M33.75 39.904h-7.584v-7.237a12.744 12.744 0 0 1-5.226-3.16 12.669 12.669 0 0 1-3.734-9.018V3.33h25.51v17.16c0 3.408-1.329 6.612-3.738 9.017a12.7 12.7 0 0 1-5.227 3.16v7.238zm-5.582-1.997h3.586v-6.781l.764-.187a10.75 10.75 0 0 0 5.049-2.844 10.686 10.686 0 0 0 3.152-7.606V5.325H19.207V20.49c0 2.874 1.12 5.575 3.152 7.606a10.734 10.734 0 0 0 5.05 2.844l.763.186v6.782h-.004z" fill="#787878"/>
    <path d="M38.718 44.604H21.21V42.33c0-1.181.46-2.297 1.298-3.13a4.397 4.397 0 0 1 3.13-1.299h8.652c1.181 0 2.297.46 3.13 1.298a4.397 4.397 0 0 1 1.298 3.13v2.275zm-15.511-1.997h13.51v-.273c0-.647-.252-1.26-.712-1.72a2.41 2.41 0 0 0-1.719-.711h-8.652c-.647 0-1.26.252-1.72.712a2.407 2.407 0 0 0-.711 1.715v.273l.004.004zM41.718 21.489v-1.997a4.844 4.844 0 0 0 3.447-1.428 4.844 4.844 0 0 0 1.428-3.447v-4.88h-4.88V7.74h6.877v6.877a6.834 6.834 0 0 1-2.014 4.862 6.834 6.834 0 0 1-4.862 2.014l.004-.004zM18.21 21.489a6.834 6.834 0 0 1-4.863-2.015 6.834 6.834 0 0 1-2.014-4.862V7.735h6.877v1.997h-4.88v4.88c0 1.303.508 2.527 1.428 3.447a4.844 4.844 0 0 0 3.447 1.428v1.997l.005.005z" fill="#787878"/>
    <path d="m29.961 12.463 1.61 3.26 3.595.521-2.6 2.535.612 3.582-3.217-1.689-3.217 1.69.617-3.582-2.605-2.536 3.599-.52 1.606-3.261zM41.981 58.297H39.98V44.604H19.94v13.693h-1.997V42.602h24.038v15.694z" fill="#DA2128"/>
    <path d="M53 58.296h-1.997v-6.347h-9.021v6.347H39.98v-8.349H53v8.349zM19.94 58.296h-1.997v-6.347h-9.02v6.347H6.92v-8.349h13.02v8.349zM30.958 48.429h-1.997v8.865h1.997v-8.865z" fill="#DA2128"/>
    <path d="M32.157 56.299h-4.39v1.997h4.39v-1.997zM27.767 51.624v-2.001c.66 0 1.194-.534 1.194-1.194h1.997a3.198 3.198 0 0 1-3.195 3.195h.004z" fill="#DA2128"/>
    <defs>
        <filter id="iazylrm8ja" x="-170" y="-64" width="410" height="459" filterUnits="userSpaceOnUse" color-interpolation-filters="sRGB">
            <feFlood flood-opacity="0" result="BackgroundImageFix"/>
            <feColorMatrix in="SourceAlpha" values="0 0 0 0 0 0 0 0 0 0 0 0 0 0 0 0 0 0 127 0" result="hardAlpha"/>
            <feOffset dx="5" dy="5"/>
            <feGaussianBlur stdDeviation="7.5"/>
            <feComposite in2="hardAlpha" operator="out"/>
            <feColorMatrix values="0 0 0 0 0 0 0 0 0 0 0 0 0 0 0 0 0 0 0.04 0"/>
            <feBlend in2="BackgroundImageFix" result="effect1_dropShadow_301_3007"/>
            <feBlend in="SourceGraphic" in2="effect1_dropShadow_301_3007" result="shape"/>
        </filter>
    </defs>
</svg>
