<svg width="61" height="60" viewBox="0 0 61 60" fill="none" xmlns="http://www.w3.org/2000/svg">
    <g clip-path="url(#a)">
        <path d="M19.828 41.992a2.65 2.65 0 1 0-5.3 0v1.723a2.65 2.65 0 0 0 5.3 0v-1.723z" fill="#FFF0BC" stroke="#787878" stroke-width="2" stroke-linecap="round" stroke-linejoin="round"/>
        <path d="M9.104 55.367v-2.545a3.851 3.851 0 0 1 3.851-3.851h8.375a3.842 3.842 0 0 1 3.842 3.851v2.544" fill="#FFF0BC"/>
        <path d="M9.104 55.367v-2.545a3.851 3.851 0 0 1 3.851-3.851h8.375a3.842 3.842 0 0 1 3.842 3.851v2.544" stroke="#787878" stroke-width="2" stroke-linecap="round" stroke-linejoin="round"/>
        <path d="M48.636 41.992a2.65 2.65 0 1 0-5.3 0v1.723a2.65 2.65 0 0 0 5.3 0v-1.723z" fill="#FFF0BC" stroke="#787878" stroke-width="2" stroke-linecap="round" stroke-linejoin="round"/>
        <path d="M37.947 55.367v-2.545a3.852 3.852 0 0 1 3.852-3.851h8.374a3.85 3.85 0 0 1 3.852 3.851v2.544" fill="#FFF0BC"/>
        <path d="M37.947 55.367v-2.545a3.852 3.852 0 0 1 3.852-3.851h8.374a3.85 3.85 0 0 1 3.852 3.851v2.544" stroke="#787878" stroke-width="2" stroke-linecap="round" stroke-linejoin="round"/>
        <path d="M42.487 15.128v13.675a4.514 4.514 0 0 1-.698 2.42 4.567 4.567 0 0 1-3.904 2.182h-24.25l-7.252 7.88V15.128a4.611 4.611 0 0 1 4.611-4.603h26.89a4.603 4.603 0 0 1 4.603 4.603v0z" fill="#fff" stroke="#787878" stroke-width="2" stroke-linecap="round" stroke-linejoin="round"/>
        <path d="M53.777 9.236V35.43l-7.253-7.88h-24.24a4.603 4.603 0 0 1-4.602-4.602V9.236a4.524 4.524 0 0 1 .689-2.421 4.603 4.603 0 0 1 3.913-2.182h26.89a4.603 4.603 0 0 1 4.603 4.602z" fill="#fff" stroke="#787878" stroke-width="2" stroke-linecap="round" stroke-linejoin="round"/>
        <path d="M17.682 10.525h20.203a4.603 4.603 0 0 1 4.602 4.603v12.42H22.284a4.602 4.602 0 0 1-4.602-4.602v-12.42z" fill="#FFCFD1" stroke="#787878" stroke-width="2" stroke-linecap="round" stroke-linejoin="round"/>
        <path d="M36.381 19.032H23.379" stroke="#DA2128" stroke-width="2" stroke-linecap="round" stroke-linejoin="round" stroke-dasharray="2 4"/>
    </g>
    <defs>
        <clipPath id="a">
            <path fill="#fff" transform="translate(5.5 3.75)" d="M0 0h49.408v52.5H0z"/>
        </clipPath>
    </defs>
</svg>
