<svg width="61" height="60" viewBox="0 0 61 60" fill="none" xmlns="http://www.w3.org/2000/svg">
    <g clip-path="url(#a)">
        <path d="M29.97 35.257s-.293-15.552-8.154-20.25" stroke="#787878" stroke-width="2" stroke-linecap="round" stroke-linejoin="round"/>
        <path d="m10.655 28.089.39 1.647a.912.912 0 0 0 .669.676l1.654.39a.904.904 0 0 1 0 1.757l-1.654.39a.912.912 0 0 0-.67.67l-.39 1.654a.904.904 0 0 1-1.756 0l-.39-1.655a.912.912 0 0 0-.67-.67l-1.654-.389a.905.905 0 0 1 0-1.757l1.655-.39a.912.912 0 0 0 .669-.676l.39-1.647a.905.905 0 0 1 1.757 0zM39.037 4.28l.309 1.293a.735.735 0 0 0 .522.53l1.301.301a.735.735 0 0 1 0 1.383l-1.301.301a.736.736 0 0 0-.523.53l-.308 1.294a.735.735 0 0 1-1.375 0l-.31-1.295a.735.735 0 0 0-.521-.529l-1.302-.301a.735.735 0 0 1 0-1.383l1.302-.301a.736.736 0 0 0 .522-.53l.309-1.294a.735.735 0 0 1 1.375 0zM52.33 34.39l.39 1.654a.897.897 0 0 0 .67.669l1.654.39a.904.904 0 0 1 0 1.757l-1.654.397a.897.897 0 0 0-.67.67l-.39 1.654a.905.905 0 0 1-1.757 0l-.39-1.655a.897.897 0 0 0-.676-.669l-1.647-.397a.905.905 0 0 1 0-1.757l1.647-.39a.896.896 0 0 0 .677-.67l.39-1.654a.905.905 0 0 1 1.757 0v0zM42.19 35.257H17.743v5.456h24.449v-5.456zM37.626 56.265h-15.31L19.45 40.72h21.037l-2.86 15.544z" fill="#fff" stroke="#787878" stroke-width="2" stroke-linecap="round" stroke-linejoin="round"/>
        <path d="M29.97 35.258s.567-14.456 11.42-14.456" stroke="#787878" stroke-width="2" stroke-linecap="round" stroke-linejoin="round"/>
        <path d="M41.39 25.603a4.794 4.794 0 1 0 0-9.588 4.794 4.794 0 0 0 0 9.588zM22.639 21.588a6.588 6.588 0 1 0 0-13.177 6.588 6.588 0 0 0 0 13.177z" fill="#FFF0BC" stroke="#DA2128" stroke-width="2" stroke-linecap="round" stroke-linejoin="round"/>
        <path d="M24.235 12.331h-1.89a1.287 1.287 0 0 0-1.286 1.294v.177a1.285 1.285 0 0 0 1.286 1.294h.596a1.286 1.286 0 0 1 1.294 1.287 1.294 1.294 0 0 1-1.294 1.294h-1.882" fill="#FFDF9E"/>
        <path d="M24.235 12.331h-1.89a1.287 1.287 0 0 0-1.286 1.294v.177a1.285 1.285 0 0 0 1.286 1.294h.596a1.286 1.286 0 0 1 1.294 1.287v0a1.294 1.294 0 0 1-1.294 1.294h-1.882M22.639 12.338v-1.17M22.639 18.846v-1.17" stroke="#DA2128" stroke-width="2" stroke-linecap="round" stroke-linejoin="round"/>
        <path d="M42.529 18.86h-1.353a.926.926 0 0 0-.934.927v.132a.934.934 0 0 0 .934.927h.426a.927.927 0 0 1 .927.926.926.926 0 0 1-.927.934h-1.36" fill="#FFDF9E"/>
        <path d="M42.529 18.86h-1.353a.926.926 0 0 0-.934.927v.132a.934.934 0 0 0 .934.927h.426a.927.927 0 0 1 .927.926v0a.926.926 0 0 1-.927.934h-1.36M41.39 18.882v-.838M41.39 23.574v-.846" stroke="#DA2128" stroke-width="2" stroke-linecap="round" stroke-linejoin="round"/>
        <path d="M24.86 24.934c2.096 0 3.802 2.426 3.802 2.426s-1.706 2.427-3.802 2.427c-2.095 0-3.801-2.427-3.801-2.427s1.698-2.426 3.801-2.426zM34.97 28.08c1.47.53 2.06 2.67 2.06 2.67s-1.81 1.28-3.288.735c-1.477-.544-2.058-2.669-2.058-2.669s1.808-1.265 3.286-.735z" fill="#E4FFAA" stroke="#787878" stroke-width="2" stroke-linecap="round" stroke-linejoin="round"/>
    </g>
    <defs>
        <clipPath id="a">
            <path fill="#fff" transform="translate(4.75 3)" d="M0 0h51.721v54H0z"/>
        </clipPath>
    </defs>
</svg>
