<svg width="60" height="60" viewBox="0 0 60 60" fill="none" xmlns="http://www.w3.org/2000/svg">
    <g clip-path="url(#mqcjrwinka)">
        <path d="M29.933 14.946v31.846" stroke="#787878" stroke-width="2" stroke-linejoin="round"/>
        <path d="M32.956 5.913c0 3.536-1.352 8.602-3.016 8.602s-3.023-5.066-3.023-8.602c0-3.536 1.352-4.204 3.023-4.204 1.672 0 3.016.646 3.016 4.204z" fill="#FFCFD1" stroke="#787878" stroke-width="2" stroke-linejoin="round"/>
        <path d="M21.865 9.568c3.365 1.092 7.763 3.944 7.25 5.527-.512 1.582-5.75 1.307-9.114.215-3.365-1.092-3.58-2.585-3.068-4.167.512-1.583 1.59-2.667 4.932-1.575z" fill="#FFCFD1" stroke="#787878" stroke-width="2" stroke-linejoin="round"/>
        <path d="M21.947 21.223c2.073-2.86 6.143-6.166 7.495-5.2 1.352.966-.534 5.876-2.614 8.736-2.08 2.86-3.566 2.607-4.91 1.627-1.345-.98-2.05-2.303.03-5.163z" fill="#FFCFD1" stroke="#787878" stroke-width="2" stroke-linejoin="round"/>
        <path d="M33.045 24.774c-2.08-2.86-3.959-7.755-2.614-8.736 1.344-.98 5.422 2.325 7.502 5.2s1.375 4.197 0 5.2c-1.374 1.003-2.808 1.174-4.888-1.664z" fill="#FFCFD1" stroke="#787878" stroke-width="2" stroke-linejoin="round"/>
        <path d="M39.85 15.31c-3.365 1.092-8.595 1.374-9.115-.215-.52-1.59 3.886-4.458 7.25-5.527 3.366-1.07 4.42 0 4.933 1.575.513 1.574.297 3.097-3.068 4.167z" fill="#FFCFD1" stroke="#787878" stroke-width="2" stroke-linejoin="round"/>
        <path d="m17.118 52.869.067-3.09-9.932-8.105a4.546 4.546 0 0 1-1.664-3.276l-.81-15.934a1.94 1.94 0 0 1 1.91-2.05 1.947 1.947 0 0 1 1.968 1.663l2.288 15.496 2.608 2.615 1.693-4.658 3.819 1.962a5.076 5.076 0 0 1 2.562 3.112l1.16 4.019 1.604 7.792" fill="#fff"/>
        <path d="m17.118 52.869.067-3.09-9.932-8.105a4.546 4.546 0 0 1-1.664-3.276l-.81-15.934a1.94 1.94 0 0 1 1.91-2.05 1.947 1.947 0 0 1 1.968 1.663l2.288 15.496 2.608 2.615 1.693-4.658 3.819 1.962a5.076 5.076 0 0 1 2.562 3.112l1.16 4.019 1.604 7.792" stroke="#787878" stroke-width="2" stroke-linejoin="round"/>
        <path d="m18.85 37.395-3.633-1.864-3.29-3.856a1.56 1.56 0 0 0-1.895-.371 1.56 1.56 0 0 0-.743 1.931l1.635 4.338 3.877 3.878" fill="#fff"/>
        <path d="m18.85 37.395-3.633-1.864-3.29-3.856a1.56 1.56 0 0 0-1.895-.371 1.56 1.56 0 0 0-.743 1.931l1.635 4.338 3.877 3.878" stroke="#787878" stroke-width="2" stroke-linejoin="round"/>
        <path d="M26.16 54.488H15.32v4.77H26.16v-4.77z" fill="#fff" stroke="#787878" stroke-width="2" stroke-linejoin="round"/>
        <path d="m42.754 52.869-.067-3.09 9.94-8.105a4.539 4.539 0 0 0 1.656-3.276l.847-15.927a1.956 1.956 0 0 0-3.214-1.589c-.362.306-.6.734-.671 1.203l-2.28 15.496-2.586 2.607-1.686-4.657-3.826 1.96a5.073 5.073 0 0 0-2.563 3.113l-1.158 4.019-1.605 7.793" fill="#fff"/>
        <path d="m42.754 52.869-.067-3.09 9.94-8.105a4.539 4.539 0 0 0 1.656-3.276l.847-15.927a1.956 1.956 0 0 0-1.917-2.05 1.954 1.954 0 0 0-1.968 1.664l-2.28 15.496-2.586 2.607-1.686-4.657-3.826 1.96a5.073 5.073 0 0 0-2.563 3.113l-1.158 4.019-1.605 7.793" stroke="#787878" stroke-width="2" stroke-linejoin="round"/>
        <path d="m41.023 37.395 3.64-1.864 3.284-3.856a1.567 1.567 0 0 1 1.901-.371 1.56 1.56 0 0 1 .743 1.931l-1.627 4.338-3.877 3.878" fill="#fff"/>
        <path d="m41.023 37.395 3.64-1.864 3.284-3.856a1.567 1.567 0 0 1 1.901-.371 1.56 1.56 0 0 1 .743 1.931l-1.627 4.338-3.877 3.878" stroke="#787878" stroke-width="2" stroke-linejoin="round"/>
        <path d="M33.714 59.257h10.838v-4.769H33.714v4.77zM29.933 18.37a3.016 3.016 0 1 0 0-6.031 3.016 3.016 0 0 0 0 6.032zM27.987 32.232c2.31 2.31 1.924 6.44 1.924 6.44s-4.13.387-6.44-1.923c-2.31-2.31-1.924-6.448-1.924-6.448s4.13-.379 6.44 1.931z" fill="#fff" stroke="#787878" stroke-width="2" stroke-linejoin="round"/>
        <path d="M31.887 32.232c-2.31 2.31-1.924 6.44-1.924 6.44s4.13.387 6.44-1.923c2.31-2.31 1.924-6.448 1.924-6.448s-4.13-.379-6.44 1.931z" fill="#fff" stroke="#787878" stroke-width="2" stroke-linejoin="round"/>
        <path d="m13.42 7.235-2.831-2.823M18.85 4.026 17.556.238M10.21 12.666l-3.788-1.293M46.454 7.235l2.83-2.823M41.023 4.026 42.316.238M49.663 12.666l3.789-1.293" stroke="#DA2128" stroke-width="2" stroke-linejoin="round"/>
    </g>
    <defs>
        <clipPath id="mqcjrwinka">
            <path fill="#fff" transform="translate(4)" d="M0 0h51.873v60H0z"/>
        </clipPath>
    </defs>
</svg>
