<svg width="60" height="60" viewBox="0 0 60 60" fill="none" xmlns="http://www.w3.org/2000/svg">
    <g clip-path="url(#y1x435yora)">
        <path fill="#fff" d="M-157-1443h375V717h-375z"/>
        <g filter="url(#85bxedhs5b)">
            <path d="M-133-33a8 8 0 0 1 8-8h311a8 8 0 0 1 8 8v312a8 8 0 0 1-8 8h-311a8 8 0 0 1-8-8V-33z" fill="#fff"/>
            <path d="M-125-40h311v-2h-311v2zm318 7v312h2V-33h-2zm-7 319h-311v2h311v-2zm-318-7V-33h-2v312h2zm7 7a7 7 0 0 1-7-7h-2a9 9 0 0 0 9 9v-2zm318-7a7 7 0 0 1-7 7v2a9 9 0 0 0 9-9h-2zm-7-319a7 7 0 0 1 7 7h2a9 9 0 0 0-9-9v2zm-311-2a9 9 0 0 0-9 9h2a7 7 0 0 1 7-7v-2z" fill="#C7730E"/>
        </g>
        <path d="M49.168 46.945H7.431V32.777h1.933v12.1H47.23v-24.66a.376.376 0 0 0-.101-.265.356.356 0 0 0-.258-.126H9.723a.349.349 0 0 0-.25.112.389.389 0 0 0-.113.275v1.99H7.426v-1.99c0-.657.24-1.274.68-1.734a2.223 2.223 0 0 1 1.613-.716h37.148c.604 0 1.2.266 1.626.73.426.45.667 1.067.667 1.725V46.94l.008.005z" fill="#787878"/>
        <path d="M16.82 22.212v10.57h-5.227v13.132h33.416V22.212H16.82z" fill="#FFCFD1"/>
        <path d="M36.229 33.624c0 4.674-3.555 8.457-7.929 8.457-4.374 0-7.928-3.783-7.928-8.457 0-4.675 3.55-8.457 7.928-8.457s7.929 3.787 7.929 8.457z" fill="#fff"/>
        <path d="M28.298 37.474c-1.988 0-3.61-1.729-3.61-3.855 0-2.125 1.622-3.846 3.61-3.846 1.989 0 3.61 1.725 3.61 3.846s-1.621 3.855-3.61 3.855zm0-5.638c-.924 0-1.676.802-1.676 1.783 0 .982.752 1.793 1.676 1.793.925 0 1.676-.802 1.676-1.793 0-.99-.751-1.783-1.676-1.783z" fill="#787878"/>
        <path d="M33.41 42.32h-1.933c0-1.87-1.427-3.391-3.175-3.391-1.747 0-3.174 1.522-3.174 3.39h-1.934c0-3.007 2.292-5.453 5.108-5.453s5.113 2.446 5.113 5.454h-.004zM50.472 50.723H6.122a2.648 2.648 0 0 1-1.934-.851 3.006 3.006 0 0 1-.802-2.072v-2.918h49.827V47.8c0 .784-.288 1.518-.803 2.067-.519.55-1.207.856-1.938.856zM5.32 46.945v.855c0 .23.085.446.233.608a.784.784 0 0 0 .57.253h44.35c.216 0 .418-.09.57-.253a.885.885 0 0 0 .237-.608v-.855H5.319z" fill="#787878"/>
        <path d="M57.484 26.648h-1.933v2.062h1.933v-2.062zM53.449 28.71H51.35v-2.062h2.099v2.062zm-8.402 0h-2.098v-2.062h2.098v2.062zM40.85 26.648h-1.934v2.062h1.934v-2.062zM40.85 24.405h-1.934v-2.238h1.934v2.238zm0-8.962h-1.934v-2.238h1.934v2.238zM40.85 8.905h-1.934v2.062h1.934V8.905zM53.449 10.967H51.35V8.905h2.099v2.062zm-4.201 0H47.15V8.905h2.098v2.062zm-4.201 0h-2.098V8.905h2.098v2.062zM57.484 8.905h-1.933v2.062h1.933V8.905zM57.484 24.405h-1.933v-2.238h1.933v2.238zm0-4.48h-1.933v-2.239h1.933v2.238zm0-4.482h-1.933v-2.238h1.933v2.238z" fill="#DA2128"/>
        <path d="M21.996 8.702h-7.861v2.063h7.861V8.701zM31.985 11.724H17.61v2.062h14.375v-2.062zM8.714 27.976H3.939v2.063h4.775v-2.063zM13.848 24.959H3.939v2.063h9.909v-2.063z" fill="#787878"/>
        <path d="M17.787 33.813H0V21.18h17.787v12.631zM1.934 31.75h13.92v-8.507H1.933v8.507z" fill="#787878"/>
        <path d="m57.198 38.015-1.368 1.458 2.483 2.65 1.368-1.458-2.483-2.65z" fill="#DA2128"/>
        <path d="m54.376 42.455-3.204-9.42L60 36.447l-5.628 6.007h.004zm.026-5.98.755 2.224 1.33-1.418-2.085-.806z" fill="#DA2128"/>
    </g>
    <defs>
        <clipPath id="y1x435yora">
            <path fill="#fff" transform="translate(-157 -1443)" d="M0 0h375v2160H0z"/>
        </clipPath>
        <filter id="85bxedhs5b" x="-143" y="-51" width="357" height="358" filterUnits="userSpaceOnUse" color-interpolation-filters="sRGB">
            <feFlood flood-opacity="0" result="BackgroundImageFix"/>
            <feColorMatrix in="SourceAlpha" values="0 0 0 0 0 0 0 0 0 0 0 0 0 0 0 0 0 0 127 0" result="hardAlpha"/>
            <feOffset dx="5" dy="5"/>
            <feGaussianBlur stdDeviation="7.5"/>
            <feComposite in2="hardAlpha" operator="out"/>
            <feColorMatrix values="0 0 0 0 0 0 0 0 0 0 0 0 0 0 0 0 0 0 0.04 0"/>
            <feBlend in2="BackgroundImageFix" result="effect1_dropShadow_338_1437"/>
            <feBlend in="SourceGraphic" in2="effect1_dropShadow_338_1437" result="shape"/>
        </filter>
    </defs>
</svg>
