<svg width="60" height="60" viewBox="0 0 60 60" fill="none" xmlns="http://www.w3.org/2000/svg">
    <path fill="#fff" d="M0 0h60v60H0z"/>
    <path fill-rule="evenodd" clip-rule="evenodd" d="M24.869 46.334c.081.017.3-.056.36-.077-.146-.116-.471-.133-.66-.248.013.008-.604-.369-.476-.056.035.073.155.004.206.043-.077.111-.107.077-.026.124 0 0-.69-.373 0-.398-.475-.429.03-.296-.12-.566-.102-.184.408-.364.133-.523-.133-.073-.274-.06-.407-.15-.188-.137-.013-.38.172-.355.013 0 .107-.433.141-.502-.051-.02-.407-.462-.321-.552.107-.112.565.283.677-.009.042-.107-.159-.39-.146-.51.21-.017 1.58.035 1.345-.59-.081-.22-.655-.545-.6-.725.202.026.536.321.746.206.18-.09.321.098.505-.103.026-.039.339-.364.249-.424-.094 0-.146.051-.154.158-.107-.15.077-.248.175-.355.03.034.052.064.069.094.12-.171.745-.994.771-1.015.326-.373.056-.883.377-1.179.296-.278.613-.454.977-.604.116-.047.518-.257.604-.235.668.205.587-.592 1.015-.956.438-.364.116-2.223.467-2.356.189-.077.763-.78 1.059-1.106.291-.304.321-.702.214-1.096-.167-.6-.343-.257-.78-.519-.347-.205-.608-.621-1.045-.677-.253-.034-.514.043-.763-.034-.111-.034-.398-.206-.501-.06.017-.026-.236.094-.214.103-.026-.017-.005-.33-.086-.407-.133-.124-.578-.253-.741-.291-.377-.099-.467.342-.562-.185-.312-.085-.616-.441-.56-.531.03-.038-.48-1.11-.553-1.011-.005-.36-1.123-.805-1.406-.639-.257.19-.724-.162-.882-.33-.176-.188-.172-.398-.471-.518-.125-.055-.339-.026-.296-.244.051-.227-.549-.274-.604-.497.085.017.158-.026.235-.047-.231.081-.514-.086-.75.098-.334.279-.535-.128-.9-.055-.466.085-.153-.082-.445-.266.125.077-.544-.304-.385-.291-.137-.013.021.231-.133.283-.24.09-.45.145-.296.436.266.532-.557.283-.167-.08.069-.06.086-.755.163-.734-.094-.034-.848.455-.934.562-.24-.39-.651.955-.784.968-.069-.33-.386-.467-.66-.566-.231-.09-.467.468-.771.163-.54-.552-.304-1.435-.026-2.06.116-.288-1.002-.378-1.14-.258-.274.223.043-.462.04-.437.03-.278.094-.462.213-.454.073-.162.489-.912.446-.998-.167-.394-.874.3-.938.476-.073.171-.21.265-.274.415-.069.154-.198-.034-.309.03-.304.172-.741.086-.673-.36.065-.53-.132-1.58.463-1.945.184-.116.21-.642.42-.83.03-.022.63-.374.574-.442.09.094.561-.095.626.025.047.103.325.21.424.155-.005.008.051-.236.051-.236-.013 0-.197-.026-.188-.086.021-.081.59-.025.604-.025.27.021.467.24.664.107.313-.21.12 1.17.244 1.294.069.072.017.24.15.227.176-.017.231-1.787.69-2.155.334-.266.694-.51 1.062-.707.116-.06.424-.206.489-.326-.013-.056-.069-.124-.133-.064-.017-.111.167-.043.197-.159.034-.111-.094-.15-.077-.188-.004.008.116-.236.073-.201.004.004.004.017.008.02.184.03-.038-.166-.047-.2.24.124.137-.262.373-.283-.167.073-.137.261-.111.373.047.252.27-.348.244-.326.227-.09.574-.279.818-.45-.056-.021-.116.021-.184-.026.248-.094.523-.064.758-.184-.013-.248.137-.51.42-.557.433-.068.93-.33 1.358-.475-.064.145.034.034.15.09-.141-.365-.9.668-.54.458.305-.171 1.337-.334 1.474-.63 0-.017-.068-.218-.064-.218-.257 0-.274.312-.591.312-.566-.008-.223-.355-.343-.514a.236.236 0 0 1-.257-.081c.06-.009.758-.171.39-.257-.6-.129-.999.54-1.496.523.369-.227.87-.703 1.32-.767.476-.069 1.14.167 1.555-.129.377-.257.63-.068.84-.488.069-.116-.27-.262-.356-.279.035-.043.112 0 .142-.073-.566-.252-.681-.497-.75-1.148-.283.21-1.247.656-.733-.073-.184-.077-.767-.565-.994-.231-.102.15-.265.403-.432.484-.386.176-.043.141-.172.394-.214.42-.737.364-.98.729-.16.23-.207.394-.45.5-.21.095-.292-.153-.19-.35.074.08.142.094.206.034.017-.094-.111-.052-.154-.082.077-.132.167-.252.274-.36-.038-.02-.578-.107-.557-.248.035-.296-.334-.133-.402-.223.287-.364.287-.531.856-.814.193-.094 1.273-.651 1.474-.514-.025.124-.154.103-.23.163.158.043.607.09.762-.017-.03-.03-.215-.33-.12-.403-.013.013.312.004.334 0 .171-.039.364-.064.463-.24.085-.158.66-.36.792-.283.754.425-1.015.874-1.032.832.038.124.514-.09.63.235.03.082.57.257.62.18.035-.039-.154-.236-.162-.283.565.274.54.133.445-.248-.09-.36.335.021.356.034.094.047.48-.171.536-.253-.142-.103-.378-.103-.502-.231-.111-.111.3-.141.155-.257-.172-.142-.442-.103-.348-.381a.32.32 0 0 0-.278.038c.026.051.086.013.103.039a.548.548 0 0 1-.309.06c.035-.047.133-.047.133-.142-.295-.034-.45.142-.707.219.073-.103.197-.137.283-.214a1.477 1.477 0 0 0-.767.325c.03.03.064.06.082.103-.215.189-.497.248-.75.36.043-.167.227-.129.282-.253a.579.579 0 0 0-.265.064c.107-.017.424-.33.493-.41-.454-.057-.647.539-1.08.453.09-.107.274-.051.334-.214-.158.017-.762.428-.861.214 0-.017 1.105-.454 1.221-.612-.073-.009-.159.064-.227-.022.051-.06.141-.064.201-.128-.36 0-1.444.437-1.362.69a.424.424 0 0 1-.463.072c.064-.107.304-.107.112-.261a18.57 18.57 0 0 0-3.303 1.624c-1.2.745-2.194 1.62-3.184 2.613-.523.531-2.528 2.875-2.52 3.363 0 .36-.21.682-.342 1.003-.107.266-.124.634-.253.878-.291.523-.158 1.123-.291 1.718.167-.128.505-2.857.801-2.755.056.018-.184 1.136-.244 1.273-.249.574.077 1.272-.086 1.872-.017.06-.098.364-.103.424-.274.21.073.527.069.759 0 .137.703.754.84.835.291.176.351-.137.621-.081.24.051.313.488.446.677.17.257.826.227.946.347.073.094.009.595.309.668 0-.034-.009-.21.034-.24.09-.056.283.279.219.343-.095.021-.18-.013-.253-.103 0 .047-.047.703.141.574 0-.038.017-.081.017-.124.253.111.232.48.412.531.244.069.432.377.612.463.163.085.12-.579.433-.609.253-.021.398.639.484.797.133.232-.18.793 0 .969.172.188-.437.625-.467.81-.017.14-.33.278-.317.33.021.154-.068.363-.124.513-.154.412-.077.45.188.639.009.008-.496 1.002-.205 1.26.454.376 1.058 1.302 1.208 1.88.296.801.754 1.294 1.512 1.688.622.326 1.058.879 1.058 1.628.022.437-.042.986.146 1.401.129.287-.116.759.069 1.02.12.163-.034.257.034.403.073.162.24.432.24.621-.004.313 0 .69.021.998.005.107-.094.287-.038.356.073.086.497 1.127.497 1.43 0 .074.325-.016.03-.312.347-.197.278.626.304.63-.313-.103-.111-.017-.086.385.018.24-.06.125.133.172.313.068 0 .274.12.445.232.335.596.647.84.904.398.425 1.08.356 1.555.455.069.017-.086-.018 0 0l.013-.005zm1.307-32.694c-.107.099-.227.116-.352.154.09-.137.215-.115.352-.154zm-1.041-.09c.081-.017.145.009.188.064 0 .035-.428.056-.497.163.056-.184.214-.154.304-.227.043.056-.094.073 0 0h.005zm-1.05.741c.09.026-.133-.017 0 0 0 0-.026 0 0 0zm-.579-1.1c.04-.043.069-.035.09.02-.038.048-.072.04-.09-.02-.004.03 0-.026 0 0zm-.574 1.713c-.158-.008.172.009 0 0-.017 0 .026 0 0 0zm.172-.664c-.553.523-.12.004-.283.167 0 .009 0 .017-.009.017-.047-.051.283-.18.292-.184-.095.017-.069.069 0 0zm-.202-.617c-.068.077-.148.107-.24.09.073-.051.176-.034.24-.09zm2.494-1.97h-.129c.18-.15.146 0 .129 0 .026 0-.034 0 0 0zm.403-.27c-.06.068-.15.03-.227.064.081-.159.098-.159.227-.065zm-2.262.184a.225.225 0 0 1 .167-.06c.055.077-.339.124-.168.06-.017.008.026-.043 0 0zm-.099-.116c.06.03.056.056-.017.09-.056-.03-.047-.06.017-.09-.034 0 .021 0 0 0zm-2.926 4.991s-.874.352-.81.133c-.017.069.304-.248.236-.218.072-.03.664-.07.835-.065-.09.095-.176.12-.261.154-.193.073.085-.03 0 0v-.004zm.702-.437c.729.073-.432.296-.557.163a.703.703 0 0 1 .557-.163zm-.12-4.516c.197-.124.403-.214.656-.274-.189.155-.433.219-.66.279h.005v-.005zm.039 3.92c-.034.035-.064.03-.094 0 .047-.017.09-.03.094 0-.004-.034.017.03 0 0zm-.214.438s-.073-.018 0 0c.004 0-.022-.009 0 0zm-.215-.373c.266.124.112.535-.115.218-.009.189-.339.51-.514.549.064-.077.09-.159.064-.249-.056-.043-.167.082-.227.077.021.116.476-.766.094-.514-.137.107-1.045 1.071-1.097 1.016-.085-.086.403-.793.437-.823.313-.257.964-.458 1.354-.278l.005.004zm-.505-3.376c.038-.022.33-.202.364-.159.094.116-.471.266-.497.266.03-.073.086-.077.129-.107.102-.056-.043.025 0 0h.004zm.06 2.37s-.12.23-.184.145c-.06-.06.163-.249.184-.146-.009-.026-.009.056 0 0zm-.638-1.826c.034 0 .505-.3.518-.18.009.039-.574.184-.518.18zm-.129.484c-.03.056-.056.081-.124.081.026-.055.068-.06.124-.08zm-.33 1.135c.065-.051.219-.3.146-.394.043.056-.283-.034-.133-.09.06-.021.428-.222.488-.158.107.111-.462.702-.574.75a.152.152 0 0 1 .078-.108c.094-.072-.035.022 0 0h-.005zm.322.75c.406-.128.552-.36.796-.047.095.116.077.416-.141.343.06.021-.66-.047-.527-.125-.146.09-.42.155-.591.078.158-.09.291-.193.462-.245.1-.034-.17.056 0 0v-.004zm-.566-.758c.038.098.013.146-.099.163.043-.065.073-.112.099-.163zm-5.758 8.753c-.184-.009.141-.009 0 0-.022 0 .017 0 0 0zm2.326 1.67c-.056.018.142-.03 0 0-.013.005.022-.004 0 0zm5.668 1.877c-.094-.017.116.009 0 0-.008 0 .018 0 0 0zm.93 16.624c-.163-.03.086-.125 0 0-.038 0 0 0 0 0zm.411-8.316c-.06-.06.035.03 0 0-.008-.009.013.008 0 0zm.065 5.175c-.103.035.111-.038 0 0-.026.013.017-.004 0 0zm.548 5.583c-.073-.043-.073-.069-.004-.082.081.03.085.06.004.082.026.004-.03 0 0 0zm.724.317c-.073-.017-.068-.043.022-.09.064.021.055.056-.022.09.017-.009-.03 0 0 0zm-1.534-2.065s-.017.004-.025.008c.021-.017.03-.017.025-.008zM49.29 25.949c-.394-1.444-.681-2.875-1.285-4.271a20.077 20.077 0 0 0-6.436-8.196 19.193 19.193 0 0 0-2.086-1.367c-.338-.197-.69-.39-1.05-.561-.158-.073-.698-.215-.78-.352 0 .065.322.223.36.266-.21-.056-.77-.296-.78-.33.018-.026.056 0 .052-.043-.317-.201-1.495-.638-1.735-.317.047-.068.818.819.835.977.052.343.587.711.939.818.47.163.115-.051.312-.162.133-.065.258.222.377.154v-.009c-.03-.068-.072-.128-.107-.197-.038 0 .866.93.977.729a2.089 2.089 0 0 0-.527-.772c-.218-.214-.583-.231-.823-.445-.12-.107-.582-.442-.633-.596.608.022 1.31 1.298 1.91.806a2.074 2.074 0 0 1-.244-.189c.107.034.621.197.45.407-.484-.085.403.407.424.463-.09-.009-.15-.077-.231-.086.034.167.51.339.548.626-.287.043-.163-.172-.355.06-.056.072-.318.051-.45.06-.334.025-.703-.536-.947-.707.103.313.27.463.625.685.172.095-.235.137-.231.283.009 0 .107.047.107.073 0 .021-.09-.064-.107-.073.03-.026-.06.553-.069.54.275.317-.355.223-.377.236.052.072.15.107.172.214-.184.008-.334-.017-.514.047.261.077 1.7.745 1.384 1.242-.095.163-1.072-.038-1.247-.047-.382-.025-.03.36-.017.407.055.287.278.412.265.746-.017.235.227.244.292.441.068.171.034.193.214.214.321.043.33-.008.595.201.197.15.275-.136.502-.145.574-.026.085-.142.36-.219.334-.094-.095-.625-.078-.728.022-.137-.017-.291.163-.347.296-.077-.077-.377-.094-.454-.06-.236.801.197.69-.399.497.155 1.002.596 1.452.853.274.163.536.313.729.566.235.3-.335.175-.365.265-.038.099.497.339.583.33.013-.051-.069-.36-.073-.411-.026-.215-.334-.42-.313-.591.095.008.18.05.27.107-.291-.352-.758-.386-1.084-.652-.192-.162-.44-.29-.638-.458 0 0-.343-.446-.103-.36.386.129.801.518 1.196.724.308.163.377.262.608.531.09.103.57.656.681.677-.004-.004.381.347.54.403-.069-.163-.124-.364-.21-.493-.111-.171-.553-.27-.553-.53.099.012.112-.095.33-.09-.111-.005.142-.168.124-.146-.415-.236-.976-.93-1.122-1.401.111 0 .176.158.295.077a.45.45 0 0 1-.038-.249c.03.039.428.373.347.441-.107 0-.197-.051-.278-.137.051.197.252.202.334.339.008-.056-.034-.103.017-.163.338.141 1.045.69 1.135 1.071-.15.017-.432-.304-.544-.223a.264.264 0 0 0 .013.227.23.23 0 0 0-.12.035c.06.042.086.102.094.171-.06.017-.107.034-.171.051.051.193 1.067 1.162 1.135 1.063.022-.034-.038-.133-.021-.15.047-.06.206.223.291.163.069-.043-.064-.129.013-.167.146-.077.763 1.118.835 1.255.292.553.099.214-.128.291a.461.461 0 0 0-.056.185c-.36-.082-.75-.288-1.032-.493-.463-.334.15.904-.12.75-.154-.09-.249-.219-.437-.236-.287-.03-.364-.326-.621-.411-.206-.073-1.042-.15-.93-.527.086-.326-.33-.596-.471-.72-.073-.064-.99.056-1.14.103-.253.081-.651.163-.797.402-.244.442-.805-.14-1.037-.05-.115.05 0 .415-.06.526-.094.176-.317.189-.377.39-.098.373.184.685.06 1.033-.111.274-.638.394-.643.62 0 .12-.03.253-.14.322-.24.137.003.454-.147.613-.818.827.262 1.64.078 2.553-.108.519-.163.621.055 1.067.047.111.013.917.416.591.055.467.651.566.758 1.011.133.527.647.754 1.05 1.072.163.124.304.287.484.38.33.172.553-.09.87-.175.291-.081.582-.051.852.077.155.073 1.311-.741 1.615-.587.232.116.24.39.352.591.154.283.463-.085.677.005.381.171.488 1.55.171 1.808-.24.175.309.93.381 1.08.219.428.412 1.17.343 1.645-.056.381.056.99-.167 1.328-.223.338-.343.698-.518 1.08-.459.985-.022 2.094-.412 3.118-.235.523-.197 1.08-.32 1.624-.082.356-.515.866-.348 1.23.261-.231.638-.201.93-.347.59-.292.878-.977 1.306-1.435.232-.24.377-.549.51-.845.129-.282.394-.466.519-.74.295-.703.574-1.402.874-2.1.638-1.512.745-2.96.964-4.584.235-1.723.24-3.346-.082-5.06l-.021.004zm-1.508-3.984c-.082-.202-1.157-1.77-1.028-1.855.145-.09 2.429 3.954 2.185 4.58-.352-.926-.772-1.821-1.153-2.725-.004-.009.077.184 0 0h-.004zm.977 7.155c-.048-.112.017-.206.047-.339.047.137-.026.236-.047.339zm-.125.638c0-.069-.004-.124.039-.171.03.064 0 .111-.039.171zm-.377 5.193c-.042.013-.09.03-.124.042-.073 0 .137-.098.146-.107-.013.035-.013.052-.022.065.013-.013-.034.042 0 0zm.056-2.108c0-.193.008-.202.206-.326-.043.133-.18.197-.206.326zm.218-.981c0-.352-.008-.767.065-1.11.013.6.038 1.204.021 1.804-.094-.125-.09-.54-.09-.69 0-.129 0 .124 0 0l.005-.004zm.318 1.122c-.009.321-.056 1.2-.262 1.448.017-.54.219-1.037.223-1.572.047.056.038.094.038.128 0 .039 0-.034 0 0v-.004zm.248-3.273c-.09.381 0 .501-.231.715 0-.287-.103-.83.188-.998.043.09.073.167.047.283-.042.154.026-.116 0 0h-.004zM36.51 48.339c.03.06-2.528.776-2.79.836a20.27 20.27 0 0 1-3.221.415c-2.061.099-4.216-.09-6.196-.69.258.03.562.16.819.12-.249-.154-.553-.102-.771-.29.83.132 1.615.068 2.373.166-.077-.107-.771-.27-.767-.347.103-.008.63-.021.656-.043.248-.192-.399-.167-.347-.308.025-.034.201.021.265-.06.099-.129 0-.197.035-.266.025-.06 1.032-.231 1.135-.184-.12.073-.253-.013-.206.184-.098-.013-.411-.004-.428.129.008-.034.338.428.347.45.12.18.522.291.552.505.07.364 1.971.33 2.25.296.711-.082 1.375-.339 2.078-.454.411-.077.827-.193 1.247-.232.192-.021.844-.248.998-.197.098.339 1.61-.102 1.97-.034 0 .004-.06-.009 0 0v.004zm11.55-11.075c.082-.205.15-.415.249-.617-.069.215-.159.416-.249.617zm.334-.827c.009-.025.017-.055.035-.072 0 .025-.022.05-.035.072zM26.459 10.174c-.115-.017-.227 0-.342-.021.06-.052.398-.06.257-.159.458-.283 1.426-.338 1.962-.274.595.069 1.191-.111 1.782-.021.24.038.442.042.677.06.21.021-.026.235.21.27.133.017.416.33.54.265 0 .214-.103.064-.03.27.017.051.261.188.253.201-.022.03-.686-.013-.66-.008-.056-.009.009.103.056.085.128.035.42-.008.565 0-.343.305-.844.27-1.212.515-.227.15-.574.137-.827.231 0 .257-.193.566-.36.831-.124.184-.968-.24-1.054-.347-.184-.223-.613-.805-.15-.99.557-.218.004-.042-.163-.158.137-.184.283-.124.493-.094-.107-.15-.244-.189-.403-.112-.047-.158.232-.3-.017-.471-.107-.073-.698.013-.715-.094-.03-.253.715-.116.848-.33-.561-.12-1.165.428-1.705.347-.116-.017.094.013 0 0l-.005.004zM37.015 14c.09-.008-.12-.296-.167-.355.064.008.111.012.176-.022-.052-.128-.639-.471-.673-.445-.223.137-.505-.48-.531-.562.377-.051.612.356.955.519.296.137 1.337.638 1.371.955.022.159-.792.094-.912.278-.095-.23.201-.227.197-.3-.009-.06-.377-.072-.42-.068-.022 0 .124-.017 0 0h.004zm-10.69.296c-.06.038-.766.715-.745.78.013.06.737.017.857.09-.009.08-.103.038-.116.11.095 0 .39-.183.433-.132 0 .043 0 .094-.021.137.321.313.282-.368.308-.403-.227-.034.043-.351-.33-.218.022-.009-.407-.129-.39-.103-.038-.034.309-.33.335-.368-.206-.052-.232.038-.326.111-.12.09.026-.021 0 0l-.004-.004zm.703.745c.026.022-.051.022 0 0 .009 0-.008 0 0 0zm-.162-.017c.02-.021.137-.068.06-.004-.022.043-.125.077-.06.004-.013.017.008-.009 0 0zm-.51-.818h.012v.004l-.017-.004h.005zm-.635.642s.03 0 .048.013c-.017 0-.095 0-.047-.013-.013 0 .02 0 0 0zm-6.962 8.368c-.192.021.129-.15.103-.215-.133-.304-1.04-.372-1.127-.612a.128.128 0 0 0 .082-.082c-.313-.124-.476.253-.75.232.583-.994 2.035.141 2.618.595-.304.039-.613.039-.921.086-.022 0 .171-.021 0 0l-.005-.004zm.759.527c-.146-.064.48-.056.565-.09-.128-.193-.013-.296-.252-.369.218-.265.946.047 1.178.15-.018.03-.06 0-.086.043.021.013.501.411.176.279-.356-.15-.553.06-.806.201-.197-.283-.518-.09-.78-.214-.03-.013.06.03 0 0h.005zM36.5 13.597c.339.356-.188.626-.433.399-.115-.12-.042-.407-.317-.489l.219-.072c-.184-.438.437.072.531.162-.03-.03.069.082 0 0zm-4.443-2.142c-.021-.068.489-.038.574-.056.137-.025 1.153.078.797.24-.278.125-.685.266-.947.026-.068-.06-.424-.197-.424-.214-.013-.047.017.068 0 0v.004zm9.284 5.043c.125 0 .407.454.364.527-.137.214-.364-.33-.51-.411a.791.791 0 0 0 .146-.116zm-15.869-6.183c.347-.26.428-.11.857-.064-.141.125-.471.15-.857.065.386.085.094-.073 0 0zm7.656-.295c-.253-.073-.531-.086-.775-.184.3-.03.664.081.87.141.068.021-.108.034-.09.043-.253-.073.02.004 0 0h-.005zm-.775-.184c-.026.008-.052.008-.082.013.03-.03.056-.03.082-.013-.009 0-.026.008 0 0zM18.837 23.76c.055 0 .085.034.098.086-.038.145-.488-.065-.535-.125.154-.09.3-.038.437.039zm3.23-.009c-.236.583-.844-.407 0 0-.039.086-.137-.073 0 0zm.93 2.836s.021-.025.047-.025a.537.537 0 0 0-.047.025zm.081-.02s.064-.24.223-.25c.176.112-.133.262-.223.25.197.025-.008 0 0 0zm1.898-16.38c-.163.107-.351.039-.518.103.231-.159.334-.15.518-.103-.03-.009-.163.107 0 0zm-6.032 11.76c-.06-.24-.154-.244.008-.45.06.228.06.36-.008.45.068-.094-.022-.094 0 0zm-4.349 8.295c0 .09-.043.124-.124.09-.03-.021-.043-.317.008-.377.043.094.082.189.12.287.017.043-.038-.098 0 0h-.004zm10.051-15.69c.189 0 .339.052.502.172-.219.043-.365-.043-.502-.171zm16.61 1.856c-.05-.017-.376-.214-.248-.321.103-.069.231.287.244.32h.005zm3.373 1.675c-.065-.068-.198-.021-.232-.154.111.064.24.03.343.116-.034.03-.082.072-.111.038.034.034-.065-.068 0 0zm-19.374-7.785c-.035-.047-.086-.012-.125-.06.095-.098.219-.064.33-.098-.004.013-.137.257-.21.158-.034-.047.017.035 0 0h.005zm-.562.125c-.145.111-.3.222-.505.205.137-.145.325-.167.505-.205zm-.051 4.965c.038.013.081 0 .146-.008-.193.24-.425-.095-.377-.107-.035.008.214.11.23.115-.076-.013.04.013 0 0zm.081-4.867c.137-.107.3-.128.467-.12a.75.75 0 0 1-.467.12zm15.694 6.452c-.159-.021.3-.167.137.047a.372.372 0 0 1-.137-.047c.051.009-.022 0 0 0zm5.013 1.149c-.095-.047-.133-.112-.103-.223.073.06.111.12.103.223zm-20.364-6.868c.056-.099.12-.124.317-.124-.098.11-.206.128-.317.124zm-1.448.672c-.116.06-.201.112-.321.099.085-.099.184-.094.32-.099zm12.035.827c-.022.043 0 .073.034.107-.039-.017-.18-.192-.069-.218.048.017.065.056.035.111.017-.025-.022.043 0 0zm-18.14 9.829c-.009.068-.043.098-.103.098-.034-.055.068-.223.103-.098-.009-.026.008.038 0 0zm6.752 20.83c.051.022.081.06.09.12 0 .176-.317-.094-.09-.12-.052.009.03 0 0 0zm-.459-31.378c-.038.06-.09.09-.175.115.043-.094.103-.107.175-.115zm-9.074 18.191c-.017.201-.06-.197 0 0 0 .026-.008-.021 0 0zm10.411-17.853h.026c-.026.013-.069.013-.026 0zm-.895-1.915a.177.177 0 0 1-.065.008c.018-.017.043-.017.065-.008zm-.077.017s.008-.004.012-.004c0 0-.012 0-.012.004zm-.095.026c.022-.03.056-.026.09-.026-.025.034-.055.039-.09.026zm.639.034c-.005.039-.035.034-.06.034.012-.034.034-.034.06-.034zm-7.382 20.552c-.043-.034.03.026 0 0-.017-.013.021.022 0 0zm21.456-18.975c.12.034.004.025 0 0 0 0 0 .025 0 0zm-3.102.762s.017.009.013.026c0-.009 0-.017-.009-.026 0 0 .009.009 0 0h-.004zm-11.04-2.305h.003-.004zm-.035.005s.026 0 .034-.005c-.017.026-.03.03-.034.005 0 0 .009 0 0 0zm2.352 19.134c-.064-.052.047-.039 0 0-.008 0 .017-.013 0 0zm9.537 18.637s-.008.004-.013.004c0-.009.005-.017.013-.013v.009zm-16.04-32.836s.196-.026.128.047c-.073.039-.116.022-.129-.047 0 .039.017 0 0 0zm-1.175-1.632c-.051-.034-.042-.073.039-.112.06.026.051.065-.039.112.043-.013-.025 0 0 0z" fill="#D3EEFE"/>
    <path d="M29.568 50.61c-11.602 0-21.04-9.438-21.04-21.04 0-11.602 9.438-21.045 21.04-21.045 11.602 0 21.04 9.438 21.04 21.045 0 11.606-9.438 21.04-21.04 21.04zm0-40.119c-10.518 0-19.074 8.56-19.074 19.079 0 10.518 8.556 19.074 19.074 19.074 10.518 0 19.074-8.556 19.074-19.074 0-10.518-8.556-19.079-19.074-19.079zM8.724 19.514a50.089 50.089 0 0 1-1.015-1.8l1.735-.925c.3.557.626 1.135.973 1.722l-1.693 1.003zm-1.94-3.655a29.62 29.62 0 0 1-.815-1.932l1.843-.686c.21.566.467 1.17.754 1.791l-1.783.827zm-1.449-3.972A10.92 10.92 0 0 1 5.01 9.69l1.962-.06c.017.527.107 1.13.27 1.79l-1.91.467h.003zM7.217 8.088l-1.791-.81c.188-.416.441-.784.754-1.097L7.568 7.57a1.653 1.653 0 0 0-.351.519zM49.44 54.127a10.62 10.62 0 0 1-2.198-.326l.467-1.907c.66.163 1.264.253 1.79.27l-.063 1.963h.004zm-4.233-.964a27.436 27.436 0 0 1-1.932-.814l.827-1.783c.62.292 1.225.544 1.79.754l-.685 1.843zm-3.788-1.744a42.085 42.085 0 0 1-1.799-1.015l1.003-1.693c.587.347 1.165.677 1.722.973l-.925 1.735zM51.86 53.708l-.813-1.791c.201-.094.373-.206.518-.351l1.388 1.388a3.794 3.794 0 0 1-1.092.754z" fill="#787878"/>
    <path d="m38.124 11.995-1.088-1.637c4.507-3 12.566-7.523 15.916-4.177l-1.388 1.388c-1.25-1.251-5.522-.844-13.44 4.421v.005zM6.18 52.958c-3.345-3.35 1.179-11.413 4.178-15.92l1.636 1.088C6.73 46.048 6.323 50.319 7.575 51.57l-1.389 1.388h-.004zM51.916 8.088a1.706 1.706 0 0 0-.351-.519l1.388-1.388c.308.309.56.677.754 1.097l-1.791.81zM9.59 54.13l-.038-1.966a8.38 8.38 0 0 0 1.713-.235l.446 1.915c-.763.175-1.478.27-2.12.282v.005zm4.083-.873-.664-1.851a24.019 24.019 0 0 0 1.723-.703l.805 1.791c-.647.291-1.272.549-1.864.758v.005zm3.66-1.633-.91-1.743a44.322 44.322 0 0 0 1.659-.913l.985 1.701c-.59.343-1.174.664-1.735.955zm3.423-1.975-1.046-1.662c.523-.33 1.063-.681 1.598-1.041l1.097 1.628c-.553.373-1.11.733-1.65 1.075zm3.264-2.193-1.14-1.598c.51-.364 1.024-.741 1.547-1.131l1.178 1.572a58.94 58.94 0 0 1-1.585 1.157zm3.136-2.352-1.212-1.547c.497-.39.994-.788 1.495-1.2l1.247 1.521c-.514.42-1.02.827-1.525 1.226h-.005zm3.03-2.481-1.277-1.495c.48-.412.964-.831 1.448-1.26l1.302 1.47c-.492.437-.985.865-1.478 1.285h.004zm2.93-2.592-1.328-1.448c.467-.429.934-.866 1.405-1.311l1.354 1.422c-.476.454-.951.9-1.427 1.337h-.004zm2.832-2.695-1.375-1.4c.227-.224.454-.45.68-.678.228-.227.455-.454.678-.681l1.4 1.38c-.226.23-.458.462-.69.694-.23.23-.462.458-.693.69v-.005zm2.742-2.79-1.427-1.353c.446-.467.883-.938 1.311-1.405l1.448 1.328c-.437.476-.882.951-1.332 1.427v.004zm2.643-2.878-1.47-1.303c.43-.484.85-.968 1.26-1.448l1.496 1.277c-.42.488-.849.981-1.286 1.478v-.004zm2.54-2.978-1.52-1.247c.411-.5.81-.998 1.2-1.495l1.546 1.213a91.607 91.607 0 0 1-1.225 1.525v.004zm2.422-3.08-1.573-1.178c.39-.519.767-1.033 1.131-1.547l1.598 1.14c-.372.522-.758 1.05-1.16 1.585h.004zm2.279-3.196-1.628-1.097c.36-.54.71-1.076 1.04-1.598l1.663 1.045c-.338.54-.698 1.093-1.075 1.65zm2.095-3.338-1.701-.985c.33-.566.634-1.127.913-1.658l1.743.908a42.984 42.984 0 0 1-.955 1.735zm1.83-3.53-1.791-.806c.27-.6.505-1.178.702-1.722l1.847.664a25.918 25.918 0 0 1-.759 1.864zm1.349-3.83-1.915-.446a8.69 8.69 0 0 0 .235-1.714l1.963.034a10.527 10.527 0 0 1-.283 2.121v.005z" fill="#787878"/>
    <path d="M7.273 53.707a3.631 3.631 0 0 1-1.093-.754l1.388-1.388c.146.146.313.262.519.352l-.814 1.79zM52.957 52.958l-1.388-1.388c2.69-2.69-3.346-14.721-16.31-27.686C29.255 17.886 22.97 12.908 17.554 9.87c-4.854-2.725-8.68-3.603-9.982-2.296L6.185 6.186c2.073-2.074 6.34-1.393 12.334 1.97 5.57 3.124 12.005 8.218 18.132 14.34 11.336 11.337 20.907 25.87 16.31 30.466l-.004-.004z" fill="#787878"/>
</svg>
