<svg width="60" height="60" viewBox="0 0 60 60" fill="none" xmlns="http://www.w3.org/2000/svg">
    <path fill="#fff" d="M-521-2143h1920V658H-521z"/>
    <path fill="#F8F8F8" d="M-521-502h1920v700H-521z"/>
    <g filter="url(#nlgbcv0g1a)">
        <rect x="-159.5" y="-53.5" width="379" height="428" rx="7.5" fill="#fff" stroke="#D5964A"/>
    </g>
    <path fill="#fff" d="M0 0h60v60H0z"/>
    <path d="m29.998 54.601-.3-.104C17.914 50.408 10 39.28 10 26.81V14.937h.92c4.976 0 9.021-4.045 9.021-9.022V5h20.122v.915c0 4.973 4.045 9.022 9.018 9.022H50v11.872c0 12.471-7.914 23.6-19.698 27.688l-.3.104h-.004zm-18.163-37.87v10.074c0 11.584 7.287 21.932 18.163 25.85a27.494 27.494 0 0 0 18.163-25.85V16.732c-5.252-.444-9.453-4.645-9.897-9.901H21.736c-.44 5.256-4.645 9.457-9.901 9.9z" fill="#787878"/>
    <path d="M36.258 9.218H23.743a13.29 13.29 0 0 1-9.521 9.521v8.066a25.106 25.106 0 0 0 15.777 23.296c9.481-3.79 15.777-13.007 15.777-23.296V18.74a13.292 13.292 0 0 1-9.518-9.521zm-6.26 27.049a7.706 7.706 0 0 1-7.706-7.707 7.706 7.706 0 0 1 7.707-7.706 7.706 7.706 0 0 1 7.706 7.706A7.706 7.706 0 0 1 30 36.267z" fill="#D3EEFE"/>
    <path d="m28.983 32.429-3.757-3.762 1.299-1.299 2.458 2.463 4.493-4.49 1.295 1.3-5.788 5.788z" fill="#DA2128"/>
    <path d="M29.998 37.187c-4.757 0-8.626-3.87-8.626-8.626 0-4.757 3.87-8.626 8.626-8.626 4.757 0 8.626 3.869 8.626 8.626 0 4.756-3.87 8.626-8.626 8.626zm0-15.414a6.798 6.798 0 0 0-6.791 6.792 6.798 6.798 0 0 0 6.791 6.79 6.798 6.798 0 0 0 6.791-6.79A6.798 6.798 0 0 0 30 21.773z" fill="#DA2128"/>
    <defs>
        <filter id="nlgbcv0g1a" x="-170" y="-87" width="410" height="482" filterUnits="userSpaceOnUse" color-interpolation-filters="sRGB">
            <feFlood flood-opacity="0" result="BackgroundImageFix"/>
            <feColorMatrix in="SourceAlpha" values="0 0 0 0 0 0 0 0 0 0 0 0 0 0 0 0 0 0 127 0" result="hardAlpha"/>
            <feOffset dx="5" dy="5"/>
            <feGaussianBlur stdDeviation="7.5"/>
            <feComposite in2="hardAlpha" operator="out"/>
            <feColorMatrix values="0 0 0 0 0 0 0 0 0 0 0 0 0 0 0 0 0 0 0.04 0"/>
            <feBlend in2="BackgroundImageFix" result="effect1_dropShadow_301_3007"/>
            <feBlend in="SourceGraphic" in2="effect1_dropShadow_301_3007" result="shape"/>
        </filter>
    </defs>
</svg>
