<svg width="24" height="24" viewBox="0 0 24 24" fill="none" xmlns="http://www.w3.org/2000/svg">
    <path d="M12.424 3.017c-4.912 0-7.402 3.526-7.402 6.467a3.977 3.977 0 0 0 2.13 3.954.348.348 0 0 0 .518-.259l.203-.834c.079-.259 0-.349-.147-.574a2.963 2.963 0 0 1-.676-2.028 4.9 4.9 0 0 1 5.093-4.957c2.782 0 4.303 1.7 4.303 3.965 0 2.986-1.318 5.51-3.278 5.51a1.6 1.6 0 0 1-1.634-1.994c.41-1.196.715-2.425.913-3.673a1.385 1.385 0 0 0-1.397-1.555c-1.127 0-1.994 1.127-1.994 2.67a4.056 4.056 0 0 0 .326 1.645s-1.126 4.8-1.33 5.633a11.851 11.851 0 0 0 0 3.932.135.135 0 0 0 .249 0 11.074 11.074 0 0 0 1.87-3.38c.124-.45.732-2.84.732-2.84a2.95 2.95 0 0 0 2.524 1.285c3.38 0 5.633-3.03 5.633-7.097a6.185 6.185 0 0 0-6.636-5.87z" fill="#787878"/>
</svg>
